<svg width="220" height="74" viewBox="0 0 220 74" fill="none" xmlns="http://www.w3.org/2000/svg">
<g clip-path="url(#clip0_1_155)" filter="url(#filter0_d_1_155)">
<path d="M65.6217 46.9192C65.2897 46.1209 64.9785 45.2817 64.6465 44.5653L63.1109 41.147L63.0487 41.0856C58.4836 31.2606 53.6072 21.2719 48.4404 11.4469L48.2329 11.0375C47.7141 10.0755 47.1953 9.01112 46.6558 8.02862C45.9918 6.86191 45.3485 5.61331 44.2903 4.42613C43.2587 3.18395 41.9605 2.18314 40.4892 1.49594C39.018 0.808734 37.4104 0.452271 35.7826 0.452271C34.1547 0.452271 32.5472 0.808734 31.0759 1.49594C29.6047 2.18314 28.3064 3.18395 27.2749 4.42613C26.2996 5.61331 25.5734 6.86191 24.9093 8.02862C24.3906 9.093 23.8718 10.1369 23.3323 11.0989L23.1248 11.5083C18.0409 21.3333 13.0816 31.322 8.51647 41.147L8.39197 41.2698C7.93546 42.3342 7.39595 43.4395 6.87719 44.6267C6.54518 45.3431 6.21317 46.1209 5.88117 46.9806C4.98481 49.2317 4.69858 51.6744 5.05067 54.0679C5.40277 56.4614 6.38104 58.723 7.88907 60.63C9.3971 62.537 11.3829 64.0234 13.6506 64.9428C15.9184 65.8623 18.3898 66.1829 20.8215 65.8732C23.1527 65.5705 25.3975 64.8046 27.4201 63.6217C30.1177 62.1275 32.7115 59.9578 35.6166 56.8261C38.5216 59.9578 41.1777 62.1275 43.813 63.6422C46.3473 65.1094 49.2172 65.9193 52.1547 65.9961C55.5564 66.01 58.8484 64.8094 61.4228 62.6161C63.9973 60.4227 65.6803 57.3847 66.1612 54.0628C66.717 51.6757 66.529 49.1786 65.6217 46.8987V46.9192ZM35.8241 50.317C32.255 45.8139 29.9309 41.6792 29.1424 38.1381C28.8157 36.8259 28.7453 35.4644 28.9349 34.1263C29.0802 33.0823 29.4744 32.1613 30.0139 31.3834C31.259 29.6027 33.4378 28.4974 35.8241 28.4974C36.9573 28.4632 38.0815 28.7072 39.0955 29.2073C40.1096 29.7075 40.982 30.4482 41.6342 31.363C42.1737 32.1817 42.568 33.0823 42.6925 34.1263C42.9 35.3134 42.817 36.6848 42.485 38.1381C41.6965 41.6178 39.3724 45.7934 35.8241 50.317ZM62.2602 53.3464C62.0244 55.0329 61.3448 56.629 60.2889 57.9758C59.2331 59.3225 57.838 60.3729 56.2425 61.0222C54.6655 61.6772 52.9225 61.8614 51.2209 61.6772C49.5609 61.4725 47.9008 60.9403 46.1993 59.9578C43.3741 58.2353 40.8338 56.0953 38.6669 53.6125C43.0245 48.2906 45.6598 43.4395 46.6558 39.1206C47.1331 37.0737 47.1953 35.2316 46.9878 33.5327C46.7287 31.9224 46.12 30.3863 45.2033 29.0295C44.1566 27.5584 42.7596 26.3634 41.135 25.5496C39.5104 24.7359 37.708 24.3283 35.8863 24.3627C32.0475 24.3627 28.6237 26.123 26.5486 29.0091C25.6145 30.3624 25.0108 31.9107 24.7848 33.5327C24.5151 35.252 24.5773 37.1556 25.1168 39.1206C26.1129 43.4395 28.8104 48.352 33.1058 53.6534C30.9757 56.1837 28.4294 58.3425 25.5733 60.0397C23.8511 61.0222 22.2118 61.5339 20.5517 61.7386C17.9701 62.0648 15.3624 61.3727 13.2952 59.8127C11.2281 58.2527 9.86868 55.951 9.5125 53.4078C9.30499 51.7703 9.45024 50.1328 10.1143 48.2906C10.3218 47.6356 10.633 46.9806 10.965 46.2028C11.4215 45.1384 11.9611 44.0331 12.4798 42.9278L12.5628 42.7845C17.0449 33.0209 21.942 23.0527 27.0259 13.2891L27.2334 12.8797C27.7521 11.8972 28.2709 10.8533 28.8104 9.87081C29.3499 8.8269 29.9309 7.82394 30.678 7.00519C31.3246 6.24379 32.1325 5.63147 33.0449 5.21134C33.9573 4.79121 34.952 4.57348 35.959 4.57348C36.9659 4.57348 37.9606 4.79121 38.873 5.21134C39.7854 5.63147 40.5933 6.24379 41.2399 7.00519C41.9662 7.82394 42.568 8.8269 43.1075 9.87081C43.6262 10.8533 44.145 11.9177 44.6845 12.8797L44.892 13.2891C49.9551 23.0527 54.8522 33.0209 59.4173 42.7845L59.4796 42.8459C60.0191 43.9103 60.4756 45.0975 60.9944 46.1209C61.3264 46.9192 61.6584 47.5537 61.8659 48.2292C62.2602 50.0714 62.4677 51.7089 62.2602 53.3464V53.3464ZM91.1448 49.8667C89.5812 49.8893 88.0325 49.5643 86.6135 48.9158C85.1946 48.2674 83.9419 47.3121 82.9484 46.1209C80.7157 43.5827 79.5308 40.31 79.6283 36.9509C79.5941 33.5188 80.8173 30.1898 83.0729 27.5763C84.1162 26.3699 85.415 25.4038 86.8777 24.746C88.3404 24.0882 89.9316 23.7547 91.5391 23.7691C93.0516 23.7282 94.5499 24.0675 95.8929 24.755C97.236 25.4425 98.3798 26.4556 99.2167 27.6991L99.4242 24.4855H105.483V49.2117H99.4035L99.196 45.6092C98.3331 46.9369 97.1405 48.025 95.7314 48.7702C94.3222 49.5153 92.7434 49.8928 91.1448 49.8667V49.8667ZM92.7218 43.9717C93.9254 43.9717 94.9836 43.6442 95.9797 43.0506C96.8927 42.3956 97.6397 41.5359 98.2207 40.492C98.7395 39.4481 99.0092 38.1995 99.0092 36.8077C99.0901 35.5988 98.8516 34.3899 98.3169 33.2992C97.7822 32.2085 96.9697 31.2733 95.9589 30.5852C94.9876 29.9882 93.8662 29.6718 92.7218 29.6718C91.5775 29.6718 90.456 29.9882 89.4848 30.5852C88.5717 31.2402 87.8247 32.0998 87.2437 33.1438C86.695 34.295 86.425 35.5563 86.4552 36.8281C86.3743 38.037 86.6128 39.2459 87.1475 40.3366C87.6822 41.4273 88.4947 42.3625 89.5055 43.0506C90.4808 43.6442 91.5391 43.9717 92.7218 43.9717ZM115.859 17.8127C115.859 18.5291 115.734 19.1841 115.402 19.7163C115.07 20.228 114.614 20.6988 114.012 21.0263C113.41 21.3538 112.767 21.4766 112.103 21.4766C111.439 21.4766 110.775 21.3538 110.173 21.0263C109.604 20.7137 109.125 20.2628 108.783 19.7163C108.461 19.1332 108.304 18.476 108.326 17.8127C108.326 17.0758 108.471 16.4208 108.783 15.9091C109.115 15.295 109.592 14.9266 110.173 14.5991C110.775 14.2716 111.418 14.1283 112.103 14.1283C112.763 14.1133 113.416 14.2676 113.998 14.5761C114.58 14.8847 115.071 15.3369 115.423 15.8886C115.725 16.4854 115.874 17.1459 115.859 17.8127V17.8127ZM108.803 49.1298V24.4445H115.402V49.1708H108.783L108.803 49.1298ZM133.04 30.9127V30.9945C132.729 30.8513 132.314 30.7898 132.002 30.7284C131.587 30.6466 131.255 30.6466 130.861 30.6466C129.014 30.6466 127.624 31.1788 126.711 32.2841C125.715 33.4098 125.259 34.9859 125.259 37.0123V49.1503H118.639V24.4241H124.719L124.927 28.1699C125.591 26.8599 126.379 25.8774 127.5 25.1405C128.614 24.4245 129.926 24.067 131.255 24.117C131.733 24.117 132.189 24.158 132.583 24.2399C132.791 24.3013 132.915 24.3013 133.04 24.3627V30.9127V30.9127ZM135.696 49.1298V14.2921H142.295V27.5967C143.228 26.4095 144.287 25.4884 145.615 24.772C147.717 23.7552 150.106 23.4668 152.395 23.9533C154.684 24.4398 156.74 25.6728 158.231 27.4534C160.469 29.9969 161.654 33.2778 161.551 36.6439C161.585 40.0761 160.362 43.405 158.107 46.0186C157.063 47.225 155.764 48.1911 154.302 48.8488C152.839 49.5066 151.248 49.8401 149.64 49.8258C148.128 49.8666 146.63 49.5273 145.286 48.8398C143.943 48.1524 142.8 47.1393 141.963 45.8958L141.755 49.1094L135.696 49.1708V49.1298ZM148.458 43.9717C149.64 43.9717 150.699 43.6442 151.695 43.0506C152.608 42.3956 153.355 41.5359 153.936 40.492C154.475 39.4481 154.724 38.1995 154.724 36.8077C154.724 35.4362 154.475 34.1877 153.936 33.1438C153.391 32.1372 152.625 31.2631 151.695 30.5852C150.723 29.9882 149.602 29.6718 148.458 29.6718C147.313 29.6718 146.192 29.9882 145.22 30.5852C144.287 31.2402 143.56 32.0998 142.959 33.1438C142.41 34.295 142.14 35.5563 142.17 36.8281C142.089 38.037 142.328 39.2459 142.863 40.3366C143.397 41.4273 144.21 42.3625 145.22 43.0506C146.196 43.6442 147.254 43.9717 148.458 43.9717ZM164.041 49.1503V24.4241H170.121L170.329 27.6377C171.093 26.4058 172.176 25.3977 173.468 24.7176C174.759 24.0374 176.211 23.71 177.674 23.7691C179.347 23.7406 180.991 24.1992 182.401 25.0875C183.811 25.9758 184.924 27.2544 185.601 28.7634C186.327 30.3191 186.721 32.2431 186.721 34.3923V49.2117H180.102V35.252C180.102 33.5327 179.708 32.1817 178.919 31.1788C178.131 30.1963 177.052 29.6641 175.682 29.6641C174.686 29.6641 173.815 29.8688 173.047 30.3191C172.321 30.7898 171.719 31.3834 171.262 32.2227C170.801 33.071 170.572 34.0235 170.598 34.9859V49.1503H164.041V49.1503ZM190.021 49.1503V14.2716H196.64V27.5763C197.537 26.3824 198.703 25.4112 200.047 24.7397C201.39 24.0682 202.874 23.7148 204.38 23.7077C205.944 23.6851 207.492 24.0101 208.911 24.6585C210.33 25.307 211.583 26.2622 212.576 27.4534C214.798 29.9967 215.975 33.2677 215.876 36.6234C215.912 40.0559 214.688 43.3855 212.431 45.9981C211.388 47.2045 210.089 48.1706 208.626 48.8284C207.164 49.4862 205.573 49.8196 203.965 49.8053C202.452 49.8461 200.954 49.5069 199.611 48.8194C198.268 48.1319 197.124 47.1188 196.287 45.8753L196.101 49.0889L190.021 49.1503V49.1503ZM202.845 43.9717C204.048 43.9717 205.106 43.6442 206.082 43.0506C207.015 42.3956 207.742 41.5359 208.343 40.492C208.862 39.4481 209.132 38.1995 209.132 36.8077C209.213 35.5988 208.974 34.3899 208.44 33.2992C207.905 32.2085 207.092 31.2733 206.082 30.5852C205.11 29.9882 203.989 29.6718 202.845 29.6718C201.7 29.6718 200.579 29.9882 199.607 30.5852C198.694 31.2402 197.947 32.0998 197.366 33.1438C196.787 34.2847 196.516 35.5536 196.578 36.8281C196.497 38.037 196.736 39.2459 197.27 40.3366C197.805 41.4273 198.617 42.3625 199.628 43.0506C200.603 43.6442 201.599 43.9717 202.845 43.9717Z" fill="#FF385C"/>
</g>
<defs>
<filter id="filter0_d_1_155" x="0.953857" y="0.500244" width="219.655" height="73.4999" filterUnits="userSpaceOnUse" color-interpolation-filters="sRGB">
<feFlood flood-opacity="0" result="BackgroundImageFix"/>
<feColorMatrix in="SourceAlpha" type="matrix" values="0 0 0 0 0 0 0 0 0 0 0 0 0 0 0 0 0 0 127 0" result="hardAlpha"/>
<feOffset dy="4"/>
<feGaussianBlur stdDeviation="2"/>
<feComposite in2="hardAlpha" operator="out"/>
<feColorMatrix type="matrix" values="0 0 0 0 0 0 0 0 0 0 0 0 0 0 0 0 0 0 0.25 0"/>
<feBlend mode="normal" in2="BackgroundImageFix" result="effect1_dropShadow_1_155"/>
<feBlend mode="normal" in="SourceGraphic" in2="effect1_dropShadow_1_155" result="shape"/>
</filter>
<clipPath id="clip0_1_155">
<rect width="211.655" height="65.4999" fill="white" transform="translate(4.95386 0.500244)"/>
</clipPath>
</defs>
</svg>
