<svg width="221" height="74" viewBox="0 0 221 74" fill="none" xmlns="http://www.w3.org/2000/svg">
<g clip-path="url(#clip0_1_159)" filter="url(#filter0_d_1_159)">
<path fill-rule="evenodd" clip-rule="evenodd" d="M136.093 51.7246C123.793 61.0344 105.966 66.0015 90.6168 66.0015C69.0948 66.0015 49.7194 57.827 35.0612 44.2313C33.9096 43.1622 34.9415 41.7051 36.3235 42.5377C52.1425 51.9895 71.7021 57.6757 91.9066 57.6757C105.533 57.6757 120.523 54.7805 134.306 48.7727C136.388 47.8644 138.129 50.1729 136.093 51.7246" fill="#FF9900"/>
<path fill-rule="evenodd" clip-rule="evenodd" d="M141.211 45.7158C139.645 43.6532 130.818 44.7413 126.857 45.2238C125.65 45.3752 125.465 44.2966 126.553 43.5208C133.582 38.4401 145.117 39.9066 146.462 41.6096C147.807 43.3221 146.112 55.1959 139.506 60.8632C138.493 61.7336 137.525 61.27 137.977 60.1157C139.46 56.3123 142.786 47.7878 141.211 45.7158" fill="#FF9900"/>
<path fill-rule="evenodd" clip-rule="evenodd" d="M127.124 7.65332V2.71458C127.124 1.96714 127.677 1.4657 128.34 1.4657H149.871C150.562 1.4657 151.115 1.9766 151.115 2.71458V6.94373C151.106 7.65332 150.525 8.58052 149.494 10.047L138.336 26.4054C142.482 26.3014 146.859 26.9352 150.618 29.1113C151.465 29.6033 151.696 30.3224 151.76 31.0319V36.3018C151.76 37.0209 150.986 37.8629 150.175 37.4277C143.551 33.8608 134.752 33.4729 127.428 37.4656C126.682 37.8819 125.899 37.0493 125.899 36.3302V31.3252C125.899 30.521 125.908 29.1492 126.691 27.9287L139.617 8.89274H128.368C127.677 8.89274 127.124 8.3913 127.124 7.65332" fill="black"/>
<path fill-rule="evenodd" clip-rule="evenodd" d="M48.582 38.4677H42.0314C41.4049 38.4204 40.9074 37.9379 40.8613 37.3229V2.79899C40.8613 2.10832 41.4233 1.55957 42.1235 1.55957H48.2319C48.8676 1.58793 49.3743 2.08939 49.4204 2.71383V7.22683H49.5402C51.134 2.86521 54.1283 0.831055 58.1637 0.831055C62.2636 0.831055 64.8248 2.86521 66.6675 7.22683C68.2521 2.86521 71.8545 0.831055 75.7148 0.831055C78.4604 0.831055 81.4639 1.99478 83.2973 4.60607C85.3703 7.51066 84.9465 11.7303 84.9465 15.4297L84.9372 37.2188C84.9372 37.9095 84.3752 38.4677 83.675 38.4677H77.1337C76.4795 38.4204 75.9544 37.8811 75.9544 37.2188V18.9209C75.9544 17.4638 76.0834 13.8307 75.7701 12.4494C75.2818 10.1314 73.8169 9.47858 71.919 9.47858C70.3343 9.47858 68.676 10.5666 68.0034 12.3075C67.3308 14.0483 67.3953 16.9624 67.3953 18.9209V37.2188C67.3953 37.9095 66.8333 38.4677 66.1331 38.4677H59.5918C58.9284 38.4204 58.4125 37.8811 58.4125 37.2188L58.4033 18.9209C58.4033 15.0702 59.0205 9.4029 54.3679 9.4029C49.6599 9.4029 49.8442 14.9282 49.8442 18.9209V37.2188C49.8442 37.9095 49.2822 38.4677 48.582 38.4677" fill="black"/>
<path fill-rule="evenodd" clip-rule="evenodd" d="M169.656 0.831055C179.376 0.831055 184.636 9.4029 184.636 20.3022C184.636 30.8325 178.823 39.1868 169.656 39.1868C160.111 39.1868 154.915 30.6149 154.915 19.9332C154.915 9.18529 160.175 0.831055 169.656 0.831055V0.831055ZM169.711 7.87965C164.883 7.87965 164.579 14.6349 164.579 18.8452C164.579 23.0649 164.515 32.0719 169.656 32.0719C174.732 32.0719 174.972 24.8057 174.972 20.3779C174.972 17.4638 174.852 13.9821 173.995 11.2194C173.258 8.81631 171.793 7.87965 169.711 7.87965" fill="black"/>
<path fill-rule="evenodd" clip-rule="evenodd" d="M197.235 38.4677H190.712C190.058 38.4204 189.533 37.8811 189.533 37.2188L189.524 2.68545C189.579 2.05155 190.122 1.55957 190.786 1.55957H196.857C197.429 1.58793 197.898 1.98532 198.027 2.52461V7.80395H198.147C199.981 3.08282 202.551 0.831055 207.075 0.831055C210.014 0.831055 212.879 1.91909 214.722 4.89937C216.435 7.66204 216.435 12.3075 216.435 15.6473V37.3797C216.362 37.9852 215.818 38.4677 215.173 38.4677H208.604C208.005 38.4204 207.508 37.9662 207.443 37.3797V18.6276C207.443 14.8525 207.867 9.32721 203.343 9.32721C201.75 9.32721 200.285 10.4247 199.557 12.0899C198.635 14.1997 198.516 16.3001 198.516 18.6276V37.2188C198.506 37.9095 197.935 38.4677 197.235 38.4677" fill="black"/>
<path fill-rule="evenodd" clip-rule="evenodd" d="M109.96 21.9772C109.96 24.5979 110.024 26.7835 108.734 29.1109C107.693 31.0032 106.035 32.1669 104.201 32.1669C101.686 32.1669 100.212 30.1989 100.212 27.2944C100.212 21.5609 105.215 20.5201 109.96 20.5201V21.9772V21.9772ZM116.565 38.3734C116.132 38.7708 115.506 38.7992 115.018 38.5343C112.843 36.6799 112.447 35.8189 111.259 34.0497C107.666 37.8152 105.113 38.9411 100.461 38.9411C94.9421 38.9411 90.658 35.4499 90.658 28.4581C90.658 22.999 93.5325 19.2807 97.6416 17.4642C101.198 15.8558 106.164 15.5719 109.96 15.1273V14.2568C109.96 12.6579 110.079 10.7656 109.158 9.38431C108.366 8.14489 106.836 7.63399 105.482 7.63399C102.985 7.63399 100.765 8.94909 100.221 11.6739C100.111 12.2794 99.6777 12.8755 99.0788 12.9039L92.7309 12.2037C92.1966 12.0808 91.5977 11.6361 91.7543 10.794C93.21 2.88447 100.175 0.500244 106.403 0.500244C109.591 0.500244 113.755 1.37068 116.271 3.84951C119.458 6.90547 119.154 10.9833 119.154 15.4206V25.9036C119.154 29.0541 120.426 30.4355 121.624 32.1385C122.038 32.744 122.13 33.4725 121.596 33.9267C120.26 35.0715 117.883 37.2002 116.575 38.3923L116.565 38.3734" fill="black"/>
<path fill-rule="evenodd" clip-rule="evenodd" d="M24.0868 21.9772C24.0868 24.5979 24.1513 26.7834 22.8614 29.1109C21.8203 31.0031 20.1712 32.1669 18.3285 32.1669C15.8133 32.1669 14.3484 30.1989 14.3484 27.2944C14.3484 21.5609 19.3512 20.5201 24.0868 20.5201V21.9772V21.9772ZM30.6926 38.3734C30.2596 38.7708 29.6331 38.7992 29.1448 38.5343C26.9705 36.6799 26.5836 35.8189 25.3858 34.0497C21.7927 37.8152 19.2499 38.9411 14.588 38.9411C9.0785 38.9411 4.78516 35.4499 4.78516 28.4581C4.78516 22.999 7.66888 19.2807 11.7688 17.4642C15.325 15.8558 20.291 15.5719 24.0868 15.1273V14.2568C24.0868 12.6579 24.2066 10.7656 23.2945 9.38431C22.4929 8.14489 20.9635 7.63399 19.6184 7.63399C17.1216 7.63399 14.892 8.94909 14.3484 11.6739C14.2379 12.2794 13.8049 12.8755 13.2152 12.9039L6.85812 12.2037C6.32376 12.0808 5.73411 11.6361 5.88152 10.794C7.34642 2.88447 14.3024 0.500244 20.5305 0.500244C23.7183 0.500244 27.8826 1.37068 30.3978 3.84951C33.5856 6.90547 33.2816 10.9833 33.2816 15.4206V25.9036C33.2816 29.0541 34.553 30.4355 35.7507 32.1385C36.1745 32.744 36.2666 33.4725 35.7323 33.9267C34.3963 35.0715 32.0193 37.2002 30.7111 38.3923L30.6927 38.3734" fill="black"/>
</g>
<defs>
<filter id="filter0_d_1_159" x="0.786682" y="0.500244" width="219.655" height="73.4999" filterUnits="userSpaceOnUse" color-interpolation-filters="sRGB">
<feFlood flood-opacity="0" result="BackgroundImageFix"/>
<feColorMatrix in="SourceAlpha" type="matrix" values="0 0 0 0 0 0 0 0 0 0 0 0 0 0 0 0 0 0 127 0" result="hardAlpha"/>
<feOffset dy="4"/>
<feGaussianBlur stdDeviation="2"/>
<feComposite in2="hardAlpha" operator="out"/>
<feColorMatrix type="matrix" values="0 0 0 0 0 0 0 0 0 0 0 0 0 0 0 0 0 0 0.25 0"/>
<feBlend mode="normal" in2="BackgroundImageFix" result="effect1_dropShadow_1_159"/>
<feBlend mode="normal" in="SourceGraphic" in2="effect1_dropShadow_1_159" result="shape"/>
</filter>
<clipPath id="clip0_1_159">
<rect width="211.655" height="65.4999" fill="white" transform="translate(4.78668 0.500244)"/>
</clipPath>
</defs>
</svg>
