<svg width="19" height="18" viewBox="0 0 19 18" fill="none" xmlns="http://www.w3.org/2000/svg">
<path fill-rule="evenodd" clip-rule="evenodd" d="M18.1129 9.14222C18.1129 9.72114 18.0539 10.2993 17.9382 10.8628C17.8253 11.4129 17.6581 11.953 17.4391 12.4694C17.2251 12.9765 16.9596 13.4653 16.6495 13.9211C16.3439 14.374 15.9919 14.7989 15.6053 15.1863C15.2178 15.5719 14.7914 15.9229 14.3387 16.2298C13.8814 16.5378 13.392 16.8028 12.8845 17.0178C12.3674 17.2357 11.8261 17.4027 11.2764 17.5153C10.7121 17.6314 10.1319 17.6907 9.55215 17.6907C8.97195 17.6907 8.39176 17.6314 7.82829 17.5153C7.27779 17.4027 6.73646 17.2357 6.2198 17.0178C5.71235 16.8028 5.22243 16.5378 4.76514 16.2298C4.31244 15.923 3.88607 15.5719 3.49941 15.1863C3.11235 14.7989 2.76037 14.374 2.45439 13.9211C2.1459 13.4653 1.88003 12.9765 1.66519 12.4694C1.44613 11.953 1.27853 11.4129 1.16525 10.8628C1.05072 10.2993 0.992188 9.72114 0.992188 9.14222C0.992188 8.56287 1.05069 7.98352 1.16528 7.42123C1.27856 6.87108 1.44616 6.33014 1.66522 5.81466C1.88006 5.3071 2.14593 4.81792 2.45442 4.36209C2.7604 3.90881 3.11238 3.4847 3.49944 3.09692C3.8861 2.71122 4.31247 2.36105 4.76517 2.05468C5.22246 1.74536 5.71239 1.48035 6.21983 1.26494C6.7365 1.0466 7.27779 0.879244 7.82833 0.767395C8.3918 0.652201 8.97199 0.59375 9.55218 0.59375C10.1319 0.59375 10.7121 0.652201 11.2764 0.767395C11.8261 0.879278 12.3674 1.04663 12.8845 1.26494C13.392 1.48031 13.8815 1.74536 14.3388 2.05468C14.7915 2.36105 15.2179 2.71122 15.6053 3.09692C15.992 3.4847 16.344 3.90881 16.6495 4.36209C16.9596 4.81792 17.2251 5.30714 17.4391 5.81466C17.6581 6.33014 17.8253 6.87108 17.9382 7.42123C18.0539 7.98352 18.1129 8.56287 18.1129 9.14222ZM6.43294 2.53927C4.3943 3.50057 2.87275 5.37638 2.39831 7.63705C2.59104 7.63872 5.63747 7.67713 9.14746 6.74587C7.88218 4.50106 6.53034 2.66912 6.43294 2.53927ZM9.75315 7.86999C5.98901 8.99527 2.377 8.9143 2.24743 8.90932C2.24532 8.98778 2.24156 9.06372 2.24156 9.14222C2.24156 11.0176 2.95008 12.7273 4.11465 14.02C4.11214 14.0162 6.11275 10.4721 10.0579 9.19816C10.1532 9.16644 10.2502 9.13803 10.3463 9.1105C10.1628 8.69562 9.96256 8.27988 9.75315 7.86999ZM14.3801 3.66335C13.093 2.53007 11.4031 1.84265 9.55212 1.84265C8.95813 1.84265 8.38169 1.91445 7.82951 2.04718C7.93901 2.19413 9.31218 4.01315 10.5624 6.30551C13.3209 5.27287 14.3621 3.69005 14.3801 3.66335ZM10.8446 10.3201C10.8283 10.3255 10.8121 10.3302 10.7961 10.336C6.4828 11.8375 5.07422 14.8635 5.05898 14.8966C6.30007 15.8603 7.85673 16.4418 9.55217 16.4418C10.5646 16.4418 11.5289 16.236 12.4063 15.8633C12.298 15.2255 11.8733 12.9899 10.8446 10.3201ZM13.6373 15.1963C15.2788 14.0901 16.4446 12.3337 16.7698 10.2992C16.6193 10.2508 14.574 9.60424 12.2144 9.98201C13.1733 12.6134 13.5629 14.7563 13.6373 15.1963ZM11.1251 7.39328C11.2948 7.74141 11.4591 8.09573 11.6108 8.45182C11.6648 8.57956 11.7174 8.70479 11.7688 8.82999C14.2802 8.51442 16.7544 9.04536 16.8602 9.06704C16.8435 7.3365 16.2235 5.74827 15.1978 4.50484C15.184 4.52442 14.0115 6.21617 11.1251 7.39328Z" fill="#2F3337"/>
</svg>
