<svg width="207" height="62" viewBox="0 0 207 62" fill="none" xmlns="http://www.w3.org/2000/svg">
<g clip-path="url(#clip0_1_170)">
<path d="M153.484 60.118L170.621 41.2119L153.484 22.3032H171.565L180.053 31.4878L188.226 22.3032H205.677L188.621 41.1339L205.911 60.118H187.755L179.344 50.858L171.013 60.118H153.484Z" fill="#FF6600"/>
<path d="M153.484 13.8251H134.075V22.3017H153.484V35.0769H134.075V46.8028H153.484V60.1165H119.81V0.548157H153.484V13.8251Z" fill="#FF6600"/>
<path d="M105.602 0.548157V24.9264H105.445C102.301 21.3771 98.3712 20.1437 93.812 20.1437C84.473 20.1437 77.4381 26.3773 74.9686 34.6189C72.1525 25.5378 64.8898 19.9736 54.1203 19.9736C45.3745 19.9736 38.4682 23.8281 34.8641 30.1091V22.3026H16.7864V13.8268H36.5143V0.548157H0.671486V60.1174H16.7864V35.0768H32.8485C32.3697 36.9164 32.1141 38.8858 32.1141 40.9639C32.1141 53.3899 41.782 62.1087 54.1203 62.1087C64.4958 62.1087 71.3332 57.3261 74.9499 48.6064H61.14C59.2719 51.2258 57.8549 52.0039 54.1203 52.0039C49.7898 52.0039 46.0562 48.2941 46.0562 43.8965H74.1761C75.3957 53.7663 83.2257 62.278 93.9711 62.278C98.6062 62.278 102.85 60.0393 105.445 56.2593H105.602V60.1157H119.807V0.548157H105.602ZM46.5047 35.2549C47.4008 31.4714 50.3893 28.9985 54.1203 28.9985C58.2274 28.9985 61.0641 31.3951 61.8101 35.2549C62.1246 35.2549 46.5047 35.2549 46.5047 35.2549ZM96.9811 51.0468C91.7446 51.0468 88.4907 46.2563 88.4907 41.2543C88.4907 35.9076 91.3211 30.7661 96.9811 30.7661C102.85 30.7661 105.188 35.9076 105.188 41.2543C105.187 46.3247 102.71 51.0468 96.9811 51.0468Z" fill="#652C8F"/>
</g>
<defs>
<clipPath id="clip0_1_170">
<rect width="205.49" height="61.4062" fill="white" transform="translate(0.666374 0.547119)"/>
</clipPath>
</defs>
</svg>
