<svg width="196" height="66" viewBox="0 0 196 66" fill="none" xmlns="http://www.w3.org/2000/svg">
<g clip-path="url(#clip0_1_187)">
<path d="M83.2423 33.5904C83.2423 42.6821 76.0725 49.3816 67.2734 49.3816C58.4744 49.3816 51.3045 42.6821 51.3045 33.5904C51.3045 24.4347 58.4744 17.7992 67.2734 17.7992C76.0725 17.7992 83.2423 24.4347 83.2423 33.5904ZM76.2519 33.5904C76.2519 27.909 72.0964 24.0217 67.2734 24.0217C62.4504 24.0217 58.2949 27.909 58.2949 33.5904C58.2949 39.2149 62.4504 43.1591 67.2734 43.1591C72.0964 43.1591 76.2519 39.2077 76.2519 33.5904Z" fill="#EA4335"/>
<path d="M117.699 33.5904C117.699 42.6821 110.529 49.3816 101.73 49.3816C92.9314 49.3816 85.7615 42.6821 85.7615 33.5904C85.7615 24.4418 92.9314 17.7992 101.73 17.7992C110.529 17.7992 117.699 24.4347 117.699 33.5904ZM110.709 33.5904C110.709 27.909 106.553 24.0217 101.73 24.0217C96.9075 24.0217 92.752 27.909 92.752 33.5904C92.752 39.2149 96.9075 43.1591 101.73 43.1591C106.553 43.1591 110.709 39.2077 110.709 33.5904Z" fill="#FBBC05"/>
<path d="M150.711 18.7532V47.1033C150.711 58.7652 143.778 63.5281 135.582 63.5281C127.867 63.5281 123.223 58.4092 121.472 54.2229L127.558 51.7097C128.642 54.2798 131.298 57.3128 135.575 57.3128C140.821 57.3128 144.073 54.1018 144.073 48.0573V45.7862H143.829C142.264 47.7014 139.25 49.3745 135.446 49.3745C127.487 49.3745 120.195 42.497 120.195 33.6474C120.195 24.7337 127.487 17.7992 135.446 17.7992C139.243 17.7992 142.257 19.4723 143.829 21.3305H144.073V18.7604H150.711V18.7532ZM144.568 33.6474C144.568 28.087 140.829 24.0217 136.07 24.0217C131.247 24.0217 127.207 28.087 127.207 33.6474C127.207 39.1508 131.247 43.1591 136.07 43.1591C140.829 43.1591 144.568 39.1508 144.568 33.6474Z" fill="#4285F4"/>
<path d="M161.658 2.13684V48.414H154.84V2.13684H161.658Z" fill="#34A853"/>
<path d="M188.22 38.7868L193.646 42.3751C191.895 44.9452 187.675 49.3736 180.383 49.3736C171.34 49.3736 164.586 42.4391 164.586 33.5824C164.586 24.1917 171.397 17.7912 179.601 17.7912C187.861 17.7912 191.902 24.3127 193.223 27.8369L193.947 29.6311L172.668 38.3739C174.297 41.5421 176.83 43.1582 180.383 43.1582C183.943 43.1582 186.412 41.421 188.22 38.7868ZM171.519 33.1054L185.744 27.246C184.962 25.2739 182.608 23.8998 179.837 23.8998C176.285 23.8998 171.34 27.0111 171.519 33.1054V33.1054Z" fill="#EA4335"/>
<path d="M25.4937 29.4828V22.7833H48.2521C48.4746 23.9509 48.5894 25.3321 48.5894 26.8272C48.5894 31.8536 47.2043 38.0689 42.7401 42.4973C38.398 46.9826 32.8502 49.3748 25.5009 49.3748C11.8789 49.3748 0.424316 38.368 0.424316 24.855C0.424316 11.3421 11.8789 0.335297 25.5009 0.335297C33.0368 0.335297 38.4052 3.26855 42.4387 7.09176L37.6731 11.8191C34.7808 9.12795 30.8621 7.0348 25.4937 7.0348C15.5463 7.0348 7.76643 14.9873 7.76643 24.855C7.76643 34.7228 15.5463 42.6753 25.4937 42.6753C31.9459 42.6753 35.6205 40.1051 37.9746 37.7699C39.8837 35.8761 41.1397 33.1707 41.6349 29.4756L25.4937 29.4828V29.4828Z" fill="#4285F4"/>
</g>
<defs>
<clipPath id="clip0_1_187">
<rect width="195.215" height="65.4999" fill="white" transform="translate(0.17334)"/>
</clipPath>
</defs>
</svg>
