<svg width="18" height="18" viewBox="0 0 18 18" fill="none" xmlns="http://www.w3.org/2000/svg">
<path fill-rule="evenodd" clip-rule="evenodd" d="M9.05095 0.59375C6.72608 0.59375 6.43431 0.603916 5.5212 0.645469C4.60987 0.687201 3.98781 0.83148 3.44351 1.04317C2.88049 1.26182 2.40289 1.5543 1.92707 2.0303C1.45089 2.50611 1.15841 2.98372 0.939051 3.54656C0.726824 4.09104 0.582367 4.71328 0.541348 5.62425C0.500508 6.53736 0.489807 6.82931 0.489807 9.15418C0.489807 11.4791 0.500151 11.7699 0.541526 12.683C0.583437 13.5944 0.727716 14.2164 0.93923 14.7607C1.15806 15.3238 1.45054 15.8014 1.92653 16.2772C2.40217 16.7533 2.87977 17.0465 3.44244 17.2652C3.9871 17.4769 4.60934 17.6212 5.52049 17.6629C6.4336 17.7044 6.72519 17.7146 9.04988 17.7146C11.3749 17.7146 11.6658 17.7044 12.5789 17.6629C13.4903 17.6212 14.113 17.4769 14.6577 17.2652C15.2205 17.0465 15.6974 16.7533 16.1731 16.2772C16.6492 15.8014 16.9417 15.3238 17.1611 14.7609C17.3715 14.2164 17.516 13.5942 17.5588 12.6832C17.5998 11.7701 17.6105 11.4791 17.6105 9.15418C17.6105 6.82931 17.5998 6.53754 17.5588 5.62443C17.516 4.7131 17.3715 4.09104 17.1611 3.54674C16.9417 2.98372 16.6492 2.50611 16.1731 2.0303C15.6969 1.55412 15.2207 1.26164 14.6571 1.04317C14.1114 0.83148 13.489 0.687201 12.5777 0.645469C11.6646 0.603916 11.3739 0.59375 9.04828 0.59375H9.05095ZM8.28297 2.13639C8.51089 2.13603 8.76521 2.13639 9.05092 2.13639C11.3366 2.13639 11.6075 2.14459 12.51 2.18561C13.3447 2.22377 13.7977 2.36324 14.0994 2.48041C14.4989 2.63557 14.7837 2.82104 15.0832 3.12066C15.3828 3.42027 15.5683 3.70562 15.7238 4.10511C15.8409 4.40651 15.9806 4.8595 16.0186 5.69414C16.0596 6.59655 16.0685 6.86763 16.0685 9.1522C16.0685 11.4368 16.0596 11.7078 16.0186 12.6103C15.9804 13.4449 15.8409 13.8979 15.7238 14.1993C15.5686 14.5988 15.3828 14.8832 15.0832 15.1827C14.7836 15.4823 14.4991 15.6678 14.0994 15.8229C13.798 15.9406 13.3447 16.0797 12.51 16.1179C11.6076 16.1589 11.3366 16.1678 9.05092 16.1678C6.7651 16.1678 6.4942 16.1589 5.59179 16.1179C4.75715 16.0794 4.30416 15.9399 4.00222 15.8227C3.60274 15.6676 3.31739 15.4821 3.01777 15.1825C2.71816 14.8829 2.53268 14.5982 2.37717 14.1986C2.26 13.8972 2.12035 13.4442 2.08237 12.6095C2.04135 11.7071 2.03315 11.436 2.03315 9.15006C2.03315 6.86406 2.04135 6.59441 2.08237 5.692C2.12053 4.85736 2.26 4.40437 2.37717 4.10261C2.53233 3.70312 2.71816 3.41778 3.01777 3.11816C3.31739 2.81855 3.60274 2.63307 4.00222 2.47756C4.30398 2.35985 4.75715 2.22074 5.59179 2.1824C6.38149 2.14673 6.68752 2.13603 8.28297 2.13425V2.13639ZM13.6204 3.55778C13.0533 3.55778 12.5932 4.01737 12.5932 4.58467C12.5932 5.1518 13.0533 5.61193 13.6204 5.61193C14.1875 5.61193 14.6477 5.1518 14.6477 4.58467C14.6477 4.01755 14.1875 3.55778 13.6204 3.55778ZM9.05097 4.75802C6.62319 4.75802 4.65483 6.72638 4.65483 9.15416C4.65483 11.5819 6.62319 13.5494 9.05097 13.5494C11.4787 13.5494 13.4464 11.5819 13.4464 9.15416C13.4464 6.72638 11.4787 4.75802 9.05097 4.75802ZM9.05093 6.30068C10.6268 6.30068 11.9044 7.57815 11.9044 9.15416C11.9044 10.73 10.6268 12.0076 9.05093 12.0076C7.47492 12.0076 6.19746 10.73 6.19746 9.15416C6.19746 7.57815 7.47492 6.30068 9.05093 6.30068Z" fill="#EBE0D1"/>
</svg>
