<svg width="252" height="54" viewBox="0 0 252 54" fill="none" xmlns="http://www.w3.org/2000/svg">
<g clip-path="url(#clip0_1_178)">
<path d="M89.3969 31.2934L87.9027 35.5014H87.7782C87.5292 34.5525 87.0726 33.1086 86.3255 31.3759L78.3148 11.3673H70.4701V43.2573H75.6584V23.5787C75.6584 22.3411 75.6584 20.9384 75.6169 19.2057C75.5754 18.3394 75.4923 17.6793 75.4508 17.1842H75.5754C75.8244 18.4219 76.1149 19.3295 76.3225 19.9071L85.9519 43.1748H89.6045L99.1509 19.7008C99.3584 19.1645 99.566 18.0919 99.7735 17.1842H99.898C99.7735 19.5358 99.6905 21.6398 99.649 22.9187V43.1335H105.169V11.2848H97.6152L89.3969 31.2934V31.2934ZM110.399 20.2784H115.795V43.1335H110.399V20.2784ZM113.139 10.6247C112.225 10.6247 111.478 10.9548 110.856 11.5323C110.233 12.1099 109.901 12.8525 109.901 13.7601C109.901 14.6265 110.233 15.369 110.856 15.9466C111.478 16.5242 112.225 16.813 113.139 16.813C114.052 16.813 114.84 16.4829 115.421 15.9466C116.044 15.369 116.376 14.6265 116.376 13.7601C116.376 12.8937 116.044 12.1512 115.421 11.5323C114.882 10.9548 114.093 10.6247 113.139 10.6247V10.6247ZM134.929 20.0721C133.933 19.8658 132.895 19.742 131.899 19.742C129.45 19.742 127.209 20.2784 125.341 21.351C123.474 22.4236 121.979 23.9088 121.025 25.7652C120.029 27.663 119.53 29.8495 119.53 32.366C119.53 34.5525 120.029 36.4915 120.983 38.2655C121.938 39.9982 123.266 41.4008 125.051 42.3497C126.753 43.2985 128.745 43.7936 130.986 43.7936C133.56 43.7936 135.759 43.2573 137.503 42.2672L137.544 42.2259V37.2753L137.337 37.4404C136.548 38.0179 135.635 38.513 134.722 38.8018C133.767 39.1318 132.895 39.2968 132.148 39.2968C129.99 39.2968 128.288 38.678 127.085 37.3166C125.839 35.9964 125.217 34.1812 125.217 31.9122C125.217 29.5607 125.839 27.7042 127.126 26.3428C128.413 24.9814 130.115 24.2801 132.19 24.2801C133.933 24.2801 135.718 24.8576 137.337 26.0128L137.544 26.1778V20.9384L137.503 20.8972C136.797 20.6084 136.008 20.2784 134.929 20.0721V20.0721ZM152.735 19.9071C151.407 19.9071 150.162 20.3196 149.083 21.186C148.17 21.9286 147.547 23.0012 147.008 24.2801H146.966V20.2784H141.57V43.1335H146.966V31.4584C146.966 29.4782 147.381 27.828 148.294 26.6316C149.207 25.394 150.37 24.7751 151.781 24.7751C152.279 24.7751 152.777 24.8989 153.4 24.9814C153.981 25.1464 154.396 25.3114 154.686 25.5177L154.894 25.6827V20.3196L154.769 20.2784C154.396 20.0308 153.649 19.9071 152.735 19.9071V19.9071ZM167.429 19.7833C163.652 19.7833 160.622 20.8972 158.505 23.0837C156.347 25.2702 155.309 28.2818 155.309 32.0772C155.309 35.6251 156.388 38.513 158.463 40.617C160.539 42.6797 163.361 43.7523 166.889 43.7523C170.583 43.7523 173.53 42.6385 175.647 40.4107C177.805 38.1829 178.843 35.2126 178.843 31.5409C178.843 27.9105 177.847 25.0227 175.813 22.9187C173.862 20.8147 170.998 19.7833 167.429 19.7833V19.7833ZM171.745 37.3578C170.749 38.6367 169.172 39.2556 167.221 39.2556C165.27 39.2556 163.693 38.6367 162.572 37.2753C161.452 35.9964 160.912 34.14 160.912 31.7884C160.912 29.3544 161.493 27.498 162.572 26.1778C163.693 24.8576 165.229 24.1976 167.18 24.1976C169.089 24.1976 170.583 24.8164 171.662 26.0953C172.741 27.3742 173.323 29.2306 173.323 31.6647C173.24 34.14 172.783 36.0789 171.745 37.3578V37.3578ZM190.88 29.767C189.178 29.0656 188.099 28.5293 187.601 28.0755C187.186 27.663 186.978 27.0854 186.978 26.3428C186.978 25.724 187.227 25.1052 187.85 24.6926C188.472 24.2801 189.178 24.0738 190.216 24.0738C191.129 24.0738 192.083 24.2388 192.997 24.4863C193.91 24.7339 194.74 25.1052 195.404 25.6002L195.611 25.7652V20.7322L195.487 20.6909C194.864 20.4434 194.034 20.1958 193.038 19.9896C192.042 19.8246 191.129 19.742 190.382 19.742C187.808 19.742 185.691 20.3609 184.031 21.7223C182.371 23.0012 181.582 24.7339 181.582 26.7554C181.582 27.828 181.748 28.7768 182.122 29.5607C182.495 30.3445 183.035 31.0871 183.782 31.7059C184.529 32.2835 185.608 32.9436 187.103 33.5624C188.348 34.0987 189.302 34.5113 189.884 34.8413C190.465 35.1713 190.838 35.5426 191.129 35.8314C191.336 36.1615 191.461 36.574 191.461 37.1103C191.461 38.6367 190.299 39.3793 187.933 39.3793C187.02 39.3793 186.065 39.2143 184.944 38.843C183.824 38.4717 182.786 37.9354 181.914 37.3166L181.707 37.1516V42.3909L181.831 42.4322C182.62 42.8035 183.575 43.051 184.737 43.3398C185.899 43.5461 186.937 43.7111 187.85 43.7111C190.631 43.7111 192.914 43.0923 194.532 41.7309C196.193 40.4107 197.064 38.7193 197.064 36.5328C197.064 35.0063 196.649 33.6449 195.736 32.6135C194.532 31.6234 193.038 30.5921 190.88 29.767V29.767ZM211.301 19.7833C207.524 19.7833 204.494 20.8972 202.377 23.0837C200.26 25.2702 199.181 28.2818 199.181 32.0772C199.181 35.6251 200.26 38.513 202.335 40.617C204.411 42.6797 207.233 43.7523 210.761 43.7523C214.455 43.7523 217.402 42.6385 219.519 40.4107C221.677 38.1829 222.715 35.2126 222.715 31.5409C222.715 27.9105 221.719 25.0227 219.685 22.9187C217.734 20.8147 214.87 19.7833 211.301 19.7833V19.7833ZM215.576 37.3578C214.58 38.6367 213.003 39.2556 211.052 39.2556C209.059 39.2556 207.524 38.6367 206.403 37.2753C205.282 35.9964 204.743 34.14 204.743 31.7884C204.743 29.3544 205.324 27.498 206.403 26.1778C207.524 24.8576 209.059 24.1976 211.01 24.1976C212.878 24.1976 214.414 24.8164 215.493 26.0953C216.572 27.3742 217.153 29.2306 217.153 31.6647C217.153 34.14 216.614 36.0789 215.576 37.3578V37.3578ZM251.562 24.6926V20.2784H246.125V13.5126L245.959 13.5538L240.812 15.0803L240.687 15.1215V20.2784H232.552V17.3905C232.552 16.0704 232.884 15.039 233.465 14.3789C234.046 13.7188 234.918 13.3888 235.997 13.3888C236.744 13.3888 237.533 13.5538 238.404 13.9251L238.612 14.0489V9.38709L238.487 9.34584C237.74 9.09831 236.744 8.93329 235.457 8.93329C233.839 8.93329 232.427 9.30458 231.141 9.9234C229.854 10.6247 228.899 11.5736 228.194 12.8525C227.488 14.0901 227.115 15.4928 227.115 17.1017V20.2784H223.338V24.6514H227.115V43.1335H232.552V24.6926H240.687V36.4502C240.687 41.2771 242.97 43.7111 247.536 43.7111C248.283 43.7111 249.071 43.5873 249.819 43.4636C250.607 43.2985 251.188 43.0923 251.52 42.9272L251.562 42.886V38.4717L251.354 38.6367C251.022 38.843 250.732 39.008 250.234 39.1318C249.819 39.2556 249.445 39.2968 249.154 39.2968C248.075 39.2968 247.328 39.0493 246.789 38.4305C246.291 37.8529 246.042 36.904 246.042 35.5014V24.6926H251.562V24.6926Z" fill="#737373"/>
<path d="M0.904388 0.640564H26.3477V25.9298H0.904388V0.640564Z" fill="#F25022"/>
<path d="M29.0049 0.640869H54.4482V25.9301H29.0049V0.640869Z" fill="#7FBA00"/>
<path d="M0.904297 28.5705H26.3476V53.8597H0.904297V28.5705Z" fill="#00A4EF"/>
<path d="M29.0049 28.5705H54.4482V53.8597H29.0049V28.5705Z" fill="#FFB900"/>
</g>
<defs>
<clipPath id="clip0_1_178">
<rect width="250.698" height="53.2187" fill="white" transform="translate(0.903687 0.640869)"/>
</clipPath>
</defs>
</svg>
