<svg width="203" height="71" viewBox="0 0 203 71" fill="none" xmlns="http://www.w3.org/2000/svg">
<g opacity="0.5" clip-path="url(#clip0_1_196)">
<path fill-rule="evenodd" clip-rule="evenodd" d="M178.387 33.3762L165.57 55.5527L154.635 55.5962L178.387 13.8552L202.05 55.5962H190.942L178.387 33.374V33.3762ZM143.875 45.9422H156.123L150.437 55.5962H134.473L134.517 43.8414V14.1118H143.921L143.878 45.9422H143.875ZM110.286 14.114C121.964 14.1575 131.412 23.4221 131.368 34.8746C131.325 46.2858 121.877 55.5527 110.197 55.5527C98.5627 55.5092 89.1152 46.2445 89.1152 34.7898C89.1585 23.3786 98.606 14.114 110.286 14.114V14.114ZM110.243 45.9009C116.496 45.9009 121.524 40.9663 121.524 34.8746C121.57 28.7852 116.496 23.8071 110.286 23.8071C104.074 23.7636 99.0001 28.7417 99.0001 34.8333C98.9568 40.9228 104.03 45.9009 110.241 45.9009H110.243ZM71.7077 31.5798C71.5778 29.8617 71.1382 27.5891 70.4821 25.4034C69.132 20.8888 66.7849 16.7383 63.6157 13.2615C61.9527 11.4607 60.0731 9.78612 57.2711 7.81358C55.1352 6.75488 53.035 5.6248 50.9742 4.42524C49.6187 3.65318 47.999 2.70714 45.8574 2.02208C43.3182 1.4201 40.7226 1.08986 38.114 1.03689C35.5805 0.949901 33.0406 1.16738 30.5915 1.63714C28.0104 2.06557 25.8667 2.75064 23.0235 3.43788C16.5924 6.22597 11.6077 10.4299 7.3202 16.0082C-7.63823 36.9842 5.87806 66.3701 30.8535 69.8433C34.9656 70.4022 39.0776 70.1869 42.9688 69.2865L45.7253 68.558C45.812 68.5145 45.944 68.471 46.0307 68.471L49.1813 67.2705C49.3545 67.1835 49.4866 67.14 49.662 67.0552L50.9742 66.455C53.492 65.207 55.8554 63.6669 58.016 61.8661C56.0492 63.6609 53.9102 65.2556 51.6303 66.6268L51.7603 66.7138C52.1998 66.5833 52.5918 66.455 53.0292 66.3701C53.0292 66.3701 53.0292 67.0552 52.9425 66.9269C52.2431 67.4423 53.3366 66.9704 54.7355 66.2396C56.1365 65.5111 57.492 64.6085 58.7154 63.5799C60.5105 62.0793 62.0848 60.4481 64.3151 57.7905C66.5888 53.7998 69.4341 50.3244 70.7463 45.6486C71.1837 44.4046 71.5756 42.9475 71.8398 41.4447C72.0996 39.9441 72.2772 38.4 72.2772 36.8124C72.2339 35.2248 72.0585 33.5937 71.7077 31.5798V31.5798ZM39.3396 66.8421C46.9943 65.6394 53.4233 61.3942 58.6721 55.6027C60.1164 53.4997 61.2533 51.5684 62.6521 49.4676C64.4017 45.1767 64.2718 41.3599 64.8391 38.6588C65.5407 33.7655 63.8777 29.8204 62.4789 25.6165C60.3351 20.7254 57.492 17.0804 52.5051 14.2488C39.907 6.44128 22.7615 8.62695 14.5829 20.2969C14.5396 20.2969 14.3187 20.5971 13.8813 21.1973C14.4508 18.7963 15.8951 17.3805 17.3372 16.0061C21.6247 12.4894 26.6116 9.69913 32.2978 8.32901C38.729 7.64177 45.1125 8.32901 50.8421 11.1171C59.417 16.0061 65.1033 23.6875 66.5455 32.7781V41.1881C64.7525 54.9589 52.9425 65.4263 39.3396 66.8421V66.8421ZM70.7896 35.5249C70.4821 15.3645 50.4935 1.76545 31.0289 4.51223C25.3426 5.92585 19.1302 8.75744 14.7128 12.7047C12.5691 14.1183 11.5643 16.7368 9.42062 18.8377C0.845722 31.408 2.3355 47.495 13.0065 57.2773C14.3753 58.6364 15.8369 59.898 17.3805 61.0527C8.45919 55.6875 4.43375 47.5777 3.03492 37.7149C3.03492 34.1961 3.73434 30.7208 4.47706 27.2041C9.46609 11.8022 25.1672 0.606282 42.2716 3.43788C45.1147 4.12511 47.9578 4.85367 50.8465 5.54091C54.4323 6.95453 57.9749 9.05757 60.818 11.8478C63.6612 14.6338 65.8049 18.1526 67.9486 21.6257C69.3908 24.416 70.0923 27.9327 70.7918 30.7208C70.9217 32.3084 70.9217 33.9395 70.7918 35.5271L70.7896 35.5249Z" fill="black"/>
<path fill-rule="evenodd" clip-rule="evenodd" d="M53.0341 35.826C53.0341 44.4926 45.7735 51.5281 36.8067 51.5281C27.8421 51.5281 20.5794 44.4926 20.5794 35.826C20.5794 27.1616 27.8399 20.1261 36.8067 20.1261C45.7735 20.1261 53.0341 27.1616 53.0341 35.8282V35.826Z" fill="#F5F5F5"/>
<path fill-rule="evenodd" clip-rule="evenodd" d="M53.1255 33.1666C52.9068 31.9662 52.556 31.0223 52.2074 29.6935C50.8064 26.7749 48.7514 24.5022 46.0382 22.571C35.8912 15.8378 21.9375 22.3144 20.4521 33.8126C19.8848 38.3601 21.5023 42.7358 24.3887 46.0828C23.5139 45.1803 22.5525 44.2386 21.8964 43.1642L21.8098 43.2512C21.8964 43.5078 22.2472 43.6796 22.3338 43.9363C22.3338 43.9363 21.983 43.9363 22.0718 43.8928C21.8098 43.5948 22.0285 44.0668 22.4204 44.7083C22.7712 45.3521 23.2086 45.9545 23.7326 46.5112C24.4775 47.3268 25.2636 48.0553 26.5758 49.0427C28.503 50.0279 30.2071 51.3154 32.4375 51.9156C33.0503 52.0896 33.7497 52.2592 34.4513 52.3876C35.194 52.518 35.8934 52.5615 36.6816 52.5615C37.4243 52.5615 38.2125 52.4745 39.1739 52.3006C40.1654 52.1833 41.1453 51.9832 42.1037 51.7025C44.2444 51.0553 46.2163 49.9414 47.8788 48.4403C48.7103 47.6704 49.8926 46.683 50.8085 45.3956C51.5534 43.9384 51.64 43.2077 51.9908 42.564C52.3394 41.9202 52.7769 41.1917 53.0843 40.2043C53.335 39.033 53.4813 37.8416 53.5217 36.6442C53.4784 35.4437 53.3918 34.2845 53.1276 33.1688L53.1255 33.1666ZM42.7143 25.1895C44.202 26.0463 44.4207 26.1747 43.6325 25.6179C44.7714 25.8745 45.4709 26.5183 46.1703 27.162C47.8766 29.0932 49.2754 31.3659 49.9748 33.9822C50.3689 36.9421 50.0615 39.902 48.7947 42.5205C46.5211 46.5091 42.8897 49.1688 38.559 49.8974C38.0783 49.8974 37.5542 49.8974 37.0714 49.9409C38.297 49.7256 39.0852 48.9535 41.3155 48.138C43.7191 47.2811 46.4323 43.2925 47.7467 40.9742C51.5946 34.6673 47.0451 28.8344 42.7143 25.1895V25.1895ZM34.4924 49.9822C27.8447 49.2972 22.7257 43.8493 22.0263 37.5424C22.637 41.0612 24.7374 43.7623 27.5805 46.1654C28.5874 46.8092 30.0729 47.7096 31.0798 48.3533C32.7861 48.997 33.7908 49.6843 35.4538 49.9844H34.4924V49.9822ZM52.3806 38.5297C52.0774 39.8607 51.7699 41.146 51.4625 42.477C50.8064 44.1081 49.8449 45.7805 48.5327 47.1093C47.2205 48.4403 45.5575 49.469 43.8966 50.4563C42.5844 51.1414 40.9214 51.485 39.5659 51.8265C38.7777 51.9134 37.8596 51.5698 37.0714 51.5285C46.7831 51.2697 53.4308 42.2204 51.9887 33.2536C51.2871 30.6374 49.8882 28.3625 48.1819 26.0898C47.4825 25.1025 46.1248 24.5022 45.1201 23.5149C39.0397 19.6981 30.9931 20.4702 26.4004 25.4896C25.7564 26.1492 25.1567 26.851 24.6053 27.5905C27.0565 23.9868 30.9931 21.4575 35.7158 20.7268C37.3788 20.6833 39.0852 20.9856 40.746 21.2857C48.0953 23.5149 53.5629 30.6374 52.3806 38.5319V38.5297Z" fill="#D7DF23"/>
</g>
<defs>
<clipPath id="clip0_1_196">
<rect width="201.38" height="69.5937" fill="white" transform="translate(0.892395 0.953125)"/>
</clipPath>
</defs>
</svg>
