<svg width="174" height="66" viewBox="0 0 174 66" fill="none" xmlns="http://www.w3.org/2000/svg">
<g clip-path="url(#clip0_1_208)">
<path d="M142.858 62.717C159.252 62.717 172.592 49.2142 172.592 32.6198C172.592 16.0156 159.252 2.52261 142.858 2.52261C126.459 2.52261 113.123 16.0156 113.123 32.6198C113.123 49.2142 126.459 62.717 142.858 62.717ZM142.858 21.8877C148.7 21.8877 153.458 26.7019 153.458 32.6166C153.458 38.5312 148.697 43.3389 142.854 43.3389C137.008 43.3389 132.257 38.5312 132.257 32.6133C132.257 26.6921 137.012 21.8811 142.854 21.8811L142.858 21.8877ZM30.673 62.717C47.0679 62.717 60.4078 49.2142 60.4078 32.6198C60.4078 16.0156 47.0679 2.52261 30.673 2.52261C14.2814 2.52261 0.938232 16.0156 0.938232 32.6198C0.938232 49.2142 14.2814 62.717 30.673 62.717ZM30.673 21.8877C36.519 21.8877 41.274 26.7019 41.274 32.6166C41.274 38.5312 36.519 43.3389 30.673 43.3389C24.8303 43.3389 20.0786 38.5312 20.0786 32.6133C20.0786 26.6921 24.8335 21.8811 30.673 21.8811V21.8877ZM86.749 21.2097L77.6201 2.91561H56.2456L76.2099 42.9361V61.7771H97.2913V42.9361L117.256 2.91561H95.8713L86.7522 21.2097H86.749Z" fill="#EE2E24"/>
</g>
<defs>
<clipPath id="clip0_1_208">
<rect width="172.612" height="65.4999" fill="white" transform="translate(0.938232)"/>
</clipPath>
</defs>
</svg>
