<svg width="16" height="14" viewBox="0 0 16 14" fill="none" xmlns="http://www.w3.org/2000/svg">
<path fill-rule="evenodd" clip-rule="evenodd" d="M7.5747 4.14918L7.60838 4.70456L7.04702 4.63656C5.00369 4.37587 3.21858 3.49178 1.70293 2.00696L0.961939 1.27022L0.771078 1.81428C0.366903 3.02706 0.625126 4.30786 1.46716 5.16928C1.91624 5.64532 1.8152 5.71333 1.04053 5.42997C0.771078 5.33929 0.53531 5.27129 0.512855 5.30529C0.434266 5.38463 0.703716 6.41607 0.917031 6.82411C1.20894 7.39083 1.80397 7.94622 2.45514 8.27492L3.00527 8.53561L2.3541 8.54695C1.72538 8.54695 1.70293 8.55828 1.77029 8.7963C1.99483 9.53304 2.88177 10.3151 3.86976 10.6552L4.56584 10.8932L3.95957 11.2559C3.06141 11.7773 2.00606 12.072 0.950712 12.0946C0.445493 12.106 0.0300903 12.1513 0.0300903 12.1853C0.0300903 12.2987 1.3998 12.9334 2.19692 13.1827C4.58829 13.9195 7.42874 13.6021 9.56189 12.344C11.0776 11.4486 12.5932 9.66906 13.3005 7.94622C13.6822 7.02813 14.064 5.35063 14.064 4.54588C14.064 4.0245 14.0976 3.95649 14.7264 3.3331C15.0968 2.97039 15.4449 2.57369 15.5123 2.46034C15.6245 2.24499 15.6133 2.24499 15.0407 2.43767C14.0864 2.77771 13.9517 2.73237 14.4232 2.22232C14.7713 1.85962 15.1867 1.20222 15.1867 1.00953C15.1867 0.975528 15.0183 1.0322 14.8274 1.13421C14.6253 1.24755 14.1762 1.41757 13.8394 1.51958L13.2332 1.71227L12.683 1.33823C12.3799 1.13421 11.9533 0.907521 11.7287 0.839514C11.1561 0.680832 10.2804 0.703501 9.76398 0.884852C8.36059 1.3949 7.47365 2.7097 7.5747 4.14918Z" fill="#2F3337"/>
</svg>
