<svg width="247" height="58" viewBox="0 0 247 58" fill="none" xmlns="http://www.w3.org/2000/svg">
<g clip-path="url(#clip0_1_203)">
<path d="M87.8763 20.478V23.726H87.9764C89.1542 21.987 91.1096 19.939 95.4438 19.939C98.8157 19.939 101.402 21.6421 102.511 24.2146H102.611C103.558 22.914 104.643 21.9295 105.86 21.2325C107.299 20.4061 108.901 19.9318 110.918 19.9318C115.483 19.9318 119.524 22.8781 119.524 30.3083V44.3998H112.565V31.2927C112.565 27.5273 111.195 25.35 108.346 25.35C106.26 25.35 104.744 26.6578 104.166 28.2675C103.966 28.8208 103.874 29.5753 103.874 30.2077V44.407H96.9142V30.761C96.9142 27.5633 95.5978 25.3428 92.7879 25.3428C90.54 25.3428 89.1311 26.9956 88.5538 28.4112C88.3074 29.0148 88.2304 29.7118 88.2304 30.3658V44.3998H81.2634V20.478H87.8763ZM155.445 20.478V24.9907H155.638C156.916 21.5415 159.949 19.939 162.612 19.939C163.282 19.939 163.652 19.9893 164.191 20.0899V26.356C163.552 26.2698 162.959 26.1836 162.127 26.1836C159.11 26.1836 157.008 27.822 156.477 30.3873C156.361 30.9191 156.323 31.4939 156.323 32.155V44.407H149.179V20.478H155.445ZM173.89 12.5519V20.0828H179.926V26.1764H173.89V35.1659C173.89 38.0762 174.683 39.4847 177.039 39.4847C178.148 39.4847 178.964 39.3553 179.672 39.19L179.764 44.2417C178.817 44.5723 176.8 44.9316 174.753 44.9316C172.343 44.9316 170.334 44.1483 169.11 42.9339C167.709 41.547 167.062 39.2763 167.062 36.0426V12.5519H173.89ZM76.4134 44.3998H69.4848V12.5519H76.4134V44.3998ZM57.9373 35.8558C57.9373 36.2941 57.8988 36.754 57.7679 37.1492C57.229 38.8092 55.3891 40.2104 53.095 40.2104C51.1781 40.2104 49.6538 39.1972 49.6538 37.0486C49.6538 33.7647 53.5338 32.8521 57.9449 32.8736V35.8558H57.9373ZM64.8581 30.1286C64.8581 24.7033 62.3792 19.939 53.9957 19.939C49.6923 19.939 46.2742 21.0672 44.4112 22.0732L45.7738 26.4279C47.4751 25.4219 50.1927 24.5955 52.7639 24.5955C57.0211 24.5883 57.714 26.8447 57.714 28.289V28.634C48.4374 28.6196 42.579 31.6161 42.579 37.7241C42.579 41.4536 45.5582 44.9459 50.747 44.9459C53.9418 44.9459 56.6054 43.7603 58.2067 41.856H58.3607C58.3607 41.856 59.423 45.9879 65.2584 44.407C64.9505 42.6824 64.8504 40.85 64.8504 38.6439V30.1286H64.8581ZM7.7745 12.5519C8.49046 15.9221 10.5228 25.7093 10.5228 25.7093C11.3774 29.7334 12.1626 33.9515 12.7554 37.2858H12.8631C13.4405 33.7431 14.3489 30.3873 15.3189 26.2339L18.7447 12.5519H26.3276L29.5302 26.586C30.3693 30.4879 31.0391 33.4988 31.5702 37.1277H31.6703C32.2477 33.4629 33.0021 30.3298 33.8259 26.3201L36.9052 12.5519H44.1802L35.1654 44.3998C29.4224 45.5711 27.2207 43.4153 26.4354 39.9949C25.6502 36.5672 24.1105 30.0496 24.1105 30.0496C23.3176 26.4782 22.7017 23.9631 22.2706 20.2983H22.1628C21.5469 23.9272 20.9003 26.471 19.9457 30.0424L16.1658 44.407C10.2996 45.4992 8.2672 43.8824 7.14324 39.4918C6.17324 35.7336 0.122299 12.5591 0.122299 12.5591H7.7745V12.5519ZM137.631 35.8558C137.631 36.2941 137.593 36.754 137.462 37.1492C136.923 38.8092 135.083 40.2104 132.789 40.2104C130.872 40.2104 129.348 39.1972 129.348 37.0486C129.348 33.7647 133.228 32.8521 137.639 32.8736V35.8558H137.631ZM144.552 30.1286C144.552 24.7033 142.073 19.939 133.689 19.939C129.386 19.939 125.968 21.0672 124.105 22.0732L125.468 26.4279C127.169 25.4219 129.886 24.5955 132.458 24.5955C136.707 24.5883 137.408 26.8447 137.408 28.289V28.634C128.139 28.6196 122.28 31.6161 122.28 37.7241C122.28 41.4536 125.267 44.9459 130.448 44.9459C133.636 44.9459 136.307 43.7603 137.9 41.856H138.062C138.062 41.856 139.125 45.9879 144.96 44.407C144.652 42.6824 144.552 40.85 144.552 38.6439V30.1286Z" fill="#041E42"/>
<path d="M208.017 33.4332C208.7 34.5963 208.654 35.8944 207.925 36.4872L195.325 45.1238C194.013 45.8667 192.048 44.9663 190.936 43.0829C189.815 41.192 190.015 39.0834 191.327 38.3406L205.278 31.9926C206.153 31.6624 207.334 32.2702 208.017 33.4332ZM224.6 33.4332C225.291 32.2702 226.465 31.6699 227.34 31.9851L241.298 38.3331C242.61 39.0759 242.802 41.1845 241.689 43.0754C240.569 44.9588 238.597 45.8517 237.292 45.1163L224.692 36.4797C223.971 35.8944 223.917 34.5888 224.6 33.4332ZM216.305 38.1155C217.678 38.1155 218.807 38.8058 218.96 39.7138L220.318 54.7059C220.318 56.1916 218.546 57.4072 216.313 57.4072C214.087 57.4072 212.307 56.1916 212.307 54.7059L213.657 39.7138C213.811 38.8058 214.939 38.1155 216.305 38.1155ZM224.692 21.0223L237.292 12.3782C238.597 11.6353 240.569 12.5282 241.689 14.4191C242.802 16.31 242.61 18.4186 241.298 19.1614L227.34 25.517C226.465 25.8321 225.283 25.2318 224.6 24.0688C223.917 22.9057 223.971 21.6076 224.692 21.0223ZM205.278 25.517L191.327 19.1614C190.023 18.4186 189.823 16.31 190.936 14.4191C192.048 12.5282 194.021 11.6353 195.325 12.3782L207.925 21.0223C208.654 21.6001 208.7 22.9057 208.017 24.0688C207.334 25.2318 206.153 25.8321 205.278 25.517ZM213.657 17.7883L212.307 2.79608C212.307 1.31037 214.08 0.0947876 216.313 0.0947876C218.546 0.0947876 220.318 1.31037 220.318 2.79608L218.96 17.7883C218.807 18.6887 217.678 19.3865 216.305 19.3865C214.939 19.3865 213.811 18.6887 213.657 17.7883ZM245.096 45.0638V44.6886H245.442C245.557 44.6886 245.634 44.7637 245.634 44.8762C245.634 44.9813 245.557 45.0638 245.442 45.0638H245.096ZM244.813 45.7466C244.813 45.7842 244.843 45.8217 244.889 45.8217H245.035C245.073 45.8217 245.112 45.7842 245.112 45.7466V45.3189H245.35L245.542 45.7691C245.557 45.7992 245.58 45.8217 245.611 45.8217H245.787C245.841 45.8217 245.879 45.7692 245.856 45.7166C245.787 45.5816 245.718 45.439 245.649 45.2964C245.764 45.2589 245.941 45.1464 245.941 44.8762C245.941 44.5911 245.703 44.426 245.465 44.426H244.889C244.851 44.426 244.813 44.4635 244.813 44.501V45.7466ZM244.191 45.1238C244.191 44.516 244.697 44.0208 245.319 44.0208C245.941 44.0208 246.447 44.5085 246.447 45.1238C246.447 45.7316 245.948 46.2269 245.319 46.2269C244.69 46.2269 244.191 45.7316 244.191 45.1238ZM243.922 45.1238C243.922 45.8742 244.544 46.4895 245.319 46.4895C246.086 46.4895 246.716 45.8742 246.716 45.1238C246.716 44.3735 246.086 43.7582 245.319 43.7582C244.544 43.7582 243.922 44.3735 243.922 45.1238Z" fill="#FFC124"/>
</g>
<defs>
<clipPath id="clip0_1_203">
<rect width="246.588" height="57.3124" fill="white" transform="translate(0.121666 0.0947571)"/>
</clipPath>
</defs>
</svg>
