<svg width="19" height="13" viewBox="0 0 19 13" fill="none" xmlns="http://www.w3.org/2000/svg">
<path fill-rule="evenodd" clip-rule="evenodd" d="M16.245 0.635933C16.9817 0.838081 17.5619 1.43371 17.7588 2.1901C18.1165 3.56097 18.1165 6.4213 18.1165 6.4213C18.1165 6.4213 18.1165 9.28154 17.7588 10.6525C17.5619 11.4089 16.9817 12.0045 16.245 12.2068C14.91 12.574 9.55619 12.574 9.55619 12.574C9.55619 12.574 4.20238 12.574 2.86726 12.2068C2.13058 12.0045 1.55042 11.4089 1.35354 10.6525C0.99585 9.28154 0.99585 6.4213 0.99585 6.4213C0.99585 6.4213 0.99585 3.56097 1.35354 2.1901C1.55042 1.43371 2.13058 0.838081 2.86726 0.635933C4.20238 0.268555 9.55619 0.268555 9.55619 0.268555C9.55619 0.268555 14.91 0.268555 16.245 0.635933ZM7.95114 4.01365V9.36386L12.2313 6.68886L7.95114 4.01365Z" fill="#EBE0D1"/>
</svg>
